<svg id="Layer_1" xmlns="http://www.w3.org/2000/svg" viewBox="0 0 107 86"><style>.st0{fill:#013088}</style><path class="st0" d="M64.215 66.556L53.291 84.779 42.366 66.557V19.445L53.291 1.222l10.924 18.221v47.113zM77.186 0H1.117l11.656 19.443v47.113L1.117 86l78.724-.049c17.809 0 18.261-11.753 18.261-20.938l.001-48.635C98.103 11.954 96.89 0 77.186 0M103.239 78.811a3.13 3.13 0 0 1 3.149 3.139 3.137 3.137 0 0 1-3.149 3.14 3.138 3.138 0 0 1-3.15-3.14 3.131 3.131 0 0 1 3.15-3.139zm0 6.892A3.73 3.73 0 0 0 107 81.95a3.73 3.73 0 0 0-3.761-3.751 3.729 3.729 0 0 0-3.761 3.751 3.73 3.73 0 0 0 3.761 3.753zm.649-3.56c.563-.018 1.127-.324 1.127-1.154 0-.888-.688-1.118-1.452-1.118h-1.775v4.219h.611v-1.948h.783l1.079 1.948h.697l-1.07-1.947zm-.441-1.662c.506 0 .956.04.956.573 0 .573-.783.477-1.356.477h-.648V80.48h1.048z"/></svg>